<svg width="20" height="20" viewBox="0 0 20 20" fill="none" xmlns="http://www.w3.org/2000/svg">
<path d="M17.5003 13.3333H5.83366C5.61265 13.3333 5.40068 13.2455 5.2444 13.0893C5.08812 12.933 5.00033 12.721 5.00033 12.5C5.00033 12.279 5.08812 12.067 5.2444 11.9107C5.40068 11.7545 5.61265 11.6667 5.83366 11.6667H14.5337C15.0909 11.6667 15.6321 11.4806 16.0715 11.1379C16.5108 10.7951 16.8231 10.3155 16.9587 9.775L18.3337 4.36666C18.3649 4.24367 18.3676 4.11517 18.3416 3.99097C18.3156 3.86677 18.2616 3.75015 18.1837 3.65C18.1026 3.54727 17.9985 3.46508 17.8798 3.41006C17.7611 3.35505 17.6311 3.32876 17.5003 3.33333H5.63366C5.46173 2.84704 5.1436 2.42583 4.72288 2.12745C4.30216 1.82906 3.79945 1.66811 3.28366 1.66666H2.50033C2.27931 1.66666 2.06735 1.75446 1.91107 1.91074C1.75479 2.06702 1.66699 2.27898 1.66699 2.5C1.66699 2.72101 1.75479 2.93297 1.91107 3.08925C2.06735 3.24553 2.27931 3.33333 2.50033 3.33333H3.28366C3.47402 3.32778 3.66054 3.38761 3.81216 3.50284C3.96379 3.61808 4.07137 3.78177 4.11699 3.96666L4.16699 4.36666L5.60866 10C4.94562 10.0298 4.32159 10.3218 3.87384 10.8118C3.4261 11.3017 3.19132 11.9495 3.22116 12.6125C3.251 13.2755 3.543 13.8996 4.03294 14.3473C4.52288 14.7951 5.17062 15.0298 5.83366 15H5.98366C5.84661 15.3776 5.80257 15.7827 5.85527 16.1809C5.90797 16.5792 6.05586 16.9588 6.28642 17.2878C6.51698 17.6168 6.82342 17.8853 7.17979 18.0707C7.53615 18.2561 7.93195 18.3529 8.33366 18.3529C8.73537 18.3529 9.13117 18.2561 9.48753 18.0707C9.8439 17.8853 10.1503 17.6168 10.3809 17.2878C10.6115 16.9588 10.7593 16.5792 10.8121 16.1809C10.8648 15.7827 10.8207 15.3776 10.6837 15H12.6503C12.5133 15.3776 12.4692 15.7827 12.5219 16.1809C12.5746 16.5792 12.7225 16.9588 12.9531 17.2878C13.1837 17.6168 13.4901 17.8853 13.8465 18.0707C14.2028 18.2561 14.5986 18.3529 15.0003 18.3529C15.402 18.3529 15.7978 18.2561 16.1542 18.0707C16.5106 17.8853 16.817 17.6168 17.0476 17.2878C17.2781 16.9588 17.426 16.5792 17.4787 16.1809C17.5314 15.7827 17.4874 15.3776 17.3503 15H17.5003C17.7213 15 17.9333 14.9122 18.0896 14.7559C18.2459 14.5996 18.3337 14.3877 18.3337 14.1667C18.3337 13.9457 18.2459 13.7337 18.0896 13.5774C17.9333 13.4211 17.7213 13.3333 17.5003 13.3333ZM16.4337 5L15.342 9.36666C15.2964 9.55156 15.1888 9.71525 15.0372 9.83049C14.8855 9.94572 14.699 10.0055 14.5087 10H7.31699L6.06699 5H16.4337ZM8.33366 16.6667C8.16884 16.6667 8.00772 16.6178 7.87068 16.5262C7.73364 16.4347 7.62683 16.3045 7.56376 16.1522C7.50069 16 7.48418 15.8324 7.51634 15.6708C7.54849 15.5091 7.62786 15.3606 7.7444 15.2441C7.86095 15.1275 8.00943 15.0482 8.17108 15.016C8.33273 14.9839 8.50029 15.0004 8.65256 15.0634C8.80483 15.1265 8.93498 15.2333 9.02655 15.3704C9.11812 15.5074 9.16699 15.6685 9.16699 15.8333C9.16699 16.0543 9.0792 16.2663 8.92291 16.4226C8.76663 16.5789 8.55467 16.6667 8.33366 16.6667ZM15.0003 16.6667C14.8355 16.6667 14.6744 16.6178 14.5374 16.5262C14.4003 16.4347 14.2935 16.3045 14.2304 16.1522C14.1674 16 14.1509 15.8324 14.183 15.6708C14.2152 15.5091 14.2945 15.3606 14.4111 15.2441C14.5276 15.1275 14.6761 15.0482 14.8378 15.016C14.9994 14.9839 15.167 15.0004 15.3192 15.0634C15.4715 15.1265 15.6017 15.2333 15.6932 15.3704C15.7848 15.5074 15.8337 15.6685 15.8337 15.8333C15.8337 16.0543 15.7459 16.2663 15.5896 16.4226C15.4333 16.5789 15.2213 16.6667 15.0003 16.6667Z" fill="white"/>
</svg>
