<svg width="25" height="24" viewBox="0 0 25 24" fill="none" xmlns="http://www.w3.org/2000/svg">
<path d="M4.08211 12.083C3.11711 12.088 2.33611 11.268 2.33211 10.248V7.067C2.32311 6.051 3.08711 5.222 4.04811 5.199L11.7171 5C11.7721 5 11.8241 5.01 11.8751 5.027L14.8301 6.21C14.9251 6.25 15.0061 6.323 15.0541 6.418H17.5201C17.5841 6.418 17.6481 6.432 17.7041 6.459L19.5441 7.402C19.6901 7.479 19.7841 7.633 19.7841 7.81V8.277H21.9041C22.1391 8.277 22.3321 8.48 22.3321 8.73C22.3321 8.979 22.1391 9.183 21.9031 9.183H19.7841V9.287C19.7841 9.459 19.6901 9.618 19.5441 9.695L17.8711 10.552L17.7041 10.633C17.6464 10.6595 17.5836 10.6732 17.5201 10.673H15.1141V10.697C15.1141 10.896 14.9841 11.073 14.8041 11.132L11.8501 12.065C11.8091 12.0742 11.7672 12.0789 11.7251 12.079H11.0001V13.117C11.002 13.3563 10.9093 13.5866 10.7423 13.758C10.5753 13.9293 10.3474 14.0278 10.1081 14.032H9.15611V16.252H9.62311C10.4771 16.252 11.1681 16.982 11.1681 17.884C11.1681 18.786 10.4771 19.516 9.62311 19.516H5.38611C4.53611 19.52 3.84211 18.795 3.83811 17.893C3.83811 17.068 4.44211 16.389 5.17111 16.28V12.083H4.08211ZM18.1121 9.42L18.9261 9.003V8.09L18.1121 7.673V9.418V9.42ZM15.1091 9.773H17.2541V7.325H15.1091V9.772V9.773ZM12.1491 11.033L14.2511 10.363V6.94L12.1501 6.1V11.03L12.1491 11.033ZM10.0991 13.127C10.1121 13.127 10.1341 13.127 10.1341 13.117V12.084H9.14711V13.127H10.1001H10.0991ZM4.69211 17.889C4.69211 18.079 4.76511 18.26 4.89411 18.396C4.95567 18.4628 5.03056 18.5159 5.11393 18.5519C5.1973 18.5879 5.2873 18.606 5.37811 18.605H9.61611C9.99311 18.609 10.2981 18.288 10.3021 17.893V17.889C10.3026 17.7002 10.2306 17.5184 10.1011 17.381L10.0961 17.372C10.0351 17.3049 9.96113 17.251 9.8786 17.2135C9.79606 17.176 9.70674 17.1558 9.61611 17.154H8.72211C8.49011 17.164 8.29711 16.969 8.28911 16.724V12.084H6.01611V16.719C6.02111 16.955 5.84511 17.154 5.61711 17.159H5.37711C4.99611 17.164 4.69111 17.489 4.69111 17.889H4.69211ZM11.2921 11.177V5.915L4.06611 6.105C3.57611 6.124 3.18611 6.55 3.18611 7.067V10.23C3.18211 10.746 3.57311 11.168 4.06211 11.177H11.2921Z" fill="#727474"/>
<path d="M4.72998 7.08496C4.96598 7.08496 5.15898 7.28896 5.15898 7.53796V9.75796C5.15898 10.008 4.96598 10.212 4.72898 10.212C4.61218 10.208 4.50166 10.1581 4.42149 10.0731C4.34133 9.98806 4.29801 9.87479 4.30098 9.75796V7.53796C4.29925 7.48001 4.30899 7.42229 4.32964 7.36811C4.35029 7.31394 4.38144 7.26438 4.42131 7.22228C4.46117 7.18018 4.50896 7.14638 4.56194 7.12281C4.61491 7.09925 4.67202 7.08638 4.72998 7.08496ZM6.10198 7.08496C6.33798 7.08496 6.53198 7.28896 6.53198 7.53796V9.75796C6.53198 10.008 6.33798 10.212 6.10198 10.212C5.985 10.2083 5.87423 10.1585 5.79385 10.0734C5.71347 9.98837 5.67001 9.87496 5.67298 9.75796V7.53796C5.67125 7.47993 5.68102 7.42212 5.70173 7.36788C5.72245 7.31365 5.75369 7.26404 5.79366 7.22193C5.83363 7.17982 5.88154 7.14604 5.93463 7.12253C5.98772 7.09902 6.04493 7.08625 6.10298 7.08496H6.10198ZM7.43198 7.08496C7.66798 7.08496 7.86098 7.28896 7.86098 7.53796V9.75796C7.86098 10.008 7.66798 10.212 7.43098 10.212C7.31418 10.208 7.20366 10.1581 7.12349 10.0731C7.04333 9.98806 7.00001 9.87479 7.00298 9.75796V7.53796C7.00125 7.48001 7.01099 7.42229 7.03164 7.36811C7.05229 7.31394 7.08344 7.26438 7.12331 7.22228C7.16317 7.18018 7.21096 7.14638 7.26394 7.12281C7.31691 7.09925 7.37402 7.08638 7.43198 7.08496Z" fill="#727474"/>
</svg>
