<svg width="25" height="24" viewBox="0 0 25 24" fill="none" xmlns="http://www.w3.org/2000/svg">
<path fill-rule="evenodd" clip-rule="evenodd" d="M15.2977 7.63594C15.1894 7.24313 14.9863 6.88288 14.7064 6.58675C14.4265 6.29062 14.0782 6.06765 13.6921 5.93737C13.306 5.80709 12.8939 5.77348 12.4918 5.83948C12.0897 5.90548 11.7099 6.06908 11.3857 6.31594C10.9526 6.64669 10.6399 7.1104 10.4957 7.63594H15.2967H15.2977ZM10.5647 5.96494C10.9842 5.54565 11.509 5.2473 12.0838 5.10135C12.6587 4.95541 13.2623 4.96727 13.8309 5.1357C14.3996 5.30413 14.9123 5.62288 15.3149 6.05835C15.7176 6.49381 15.9953 7.02985 16.1187 7.60994L16.1237 7.63594H21.7437C21.8802 7.63594 22.011 7.69015 22.1075 7.78664C22.204 7.88312 22.2582 8.01399 22.2582 8.15044C22.2582 8.2869 22.204 8.41776 22.1075 8.51425C22.011 8.61074 21.8802 8.66494 21.7437 8.66494H20.8867V11.8249L21.8027 10.9089C21.9005 10.8205 22.0286 10.773 22.1604 10.7762C22.2922 10.7795 22.4178 10.8334 22.511 10.9266C22.6043 11.0199 22.6581 11.1454 22.6614 11.2773C22.6647 11.4091 22.6172 11.5372 22.5287 11.6349L20.8867 13.2779V17.4629C20.8867 18.0081 20.6702 18.5309 20.2849 18.9164C19.8995 19.3019 19.3768 19.5187 18.8317 19.5189H6.4977C5.95259 19.5189 5.42979 19.3025 5.04425 18.9171C4.6587 18.5318 4.44197 18.0091 4.4417 17.4639V13.2669L2.8117 11.6369C2.72055 11.5396 2.67078 11.4107 2.67292 11.2773C2.67505 11.144 2.72892 11.0167 2.82315 10.9224C2.91738 10.828 3.04458 10.774 3.17791 10.7717C3.31124 10.7693 3.44025 10.8189 3.5377 10.9099L4.4417 11.8129V8.66494H3.5847C3.44838 8.66494 3.31764 8.61079 3.22125 8.5144C3.12486 8.418 3.0707 8.28726 3.0707 8.15094C3.0707 8.01462 3.12486 7.88388 3.22125 7.78749C3.31764 7.6911 3.44838 7.63694 3.5847 7.63694H9.6677L9.6727 7.61094C9.80526 6.98788 10.1154 6.41653 10.5657 5.96594V5.96494H10.5647ZM19.9277 8.82994H5.4017V12.8379C5.44443 12.9535 5.44443 13.0804 5.4017 13.1959V17.4639C5.4017 17.608 5.43009 17.7506 5.48523 17.8836C5.54037 18.0166 5.62119 18.1375 5.72307 18.2393C5.82495 18.3411 5.94589 18.4218 6.07898 18.4768C6.21206 18.5318 6.35469 18.5601 6.4987 18.5599H18.8327C19.1234 18.5599 19.4022 18.4445 19.6077 18.2389C19.8132 18.0334 19.9287 17.7546 19.9287 17.4639V13.1589C19.9019 13.0658 19.9019 12.9671 19.9287 12.8739V8.82994H19.9277Z" fill="#727474" stroke="#727474" stroke-width="0.2"/>
</svg>
