<svg width="60" height="60" viewBox="0 0 60 60" fill="none" xmlns="http://www.w3.org/2000/svg">
<path d="M37 22.4999C36.5471 21.7143 35.8891 21.0667 35.0965 20.6263C34.3038 20.1859 33.4063 19.9694 32.5 19.9999H27.5C26.1739 19.9999 24.9021 20.5267 23.9645 21.4644C23.0268 22.4021 22.5 23.6739 22.5 24.9999C22.5 26.326 23.0268 27.5978 23.9645 28.5355C24.9021 29.4731 26.1739 29.9999 27.5 29.9999H32.5C33.8261 29.9999 35.0979 30.5267 36.0355 31.4644C36.9732 32.4021 37.5 33.6739 37.5 34.9999C37.5 36.326 36.9732 37.5978 36.0355 38.5355C35.0979 39.4731 33.8261 39.9999 32.5 39.9999H27.5C26.5937 40.0304 25.6962 39.8139 24.9035 39.3736C24.1109 38.9332 23.4529 38.2855 23 37.4999M30 15V20M30 40V45M52.5 30C52.5 42.4264 42.4264 52.5 30 52.5C17.5736 52.5 7.5 42.4264 7.5 30C7.5 17.5736 17.5736 7.5 30 7.5C42.4264 7.5 52.5 17.5736 52.5 30Z" stroke="#A83AF6" stroke-width="2" stroke-linecap="round" stroke-linejoin="round"/>
</svg>
