<svg width="25" height="24" viewBox="0 0 25 24" fill="none" xmlns="http://www.w3.org/2000/svg">
<path d="M19.3733 8.73998L16.0711 5.43784L15.8602 5.22696L15.6481 5.43659L13.734 7.3282L12.0336 5.64778L14.6461 3.01211C14.6462 3.01198 14.6464 3.01185 14.6465 3.01173C14.8175 2.84081 15.0058 2.71968 15.2122 2.64365C15.4313 2.56366 15.6464 2.52498 15.859 2.52498C16.0904 2.52498 16.3086 2.56444 16.5156 2.64248C16.7109 2.71703 16.8845 2.83545 17.0378 3.00269L17.0376 3.00288L17.0469 3.01211L19.1719 5.13711L19.1718 5.13719L19.178 5.14308C19.446 5.39619 19.641 5.68726 19.7664 6.01816C19.8955 6.36113 19.959 6.70457 19.959 7.04998C19.959 7.39546 19.8955 7.73391 19.7671 8.06702C19.6747 8.30537 19.5441 8.52964 19.3733 8.73998ZM5.82112 11.8621L5.82219 11.861L8.06006 9.60032L9.75972 11.3L7.49685 13.5628L7.49677 13.5628L7.49088 13.569C7.26359 13.8096 6.9962 13.925 6.67098 13.925C6.34602 13.925 6.06736 13.8091 5.82112 13.5628C5.57498 13.3167 5.45898 13.0378 5.45898 12.712C5.45898 12.387 5.57488 12.1083 5.82112 11.8621ZM13.9461 9.38711L15.1571 8.17613L17.745 10.8102L17.745 10.8102L17.7469 10.8121C17.8944 10.9596 17.959 11.1181 17.959 11.3C17.959 11.4819 17.8944 11.6403 17.7469 11.7878C17.5993 11.9354 17.4409 12 17.259 12C17.0771 12 16.9186 11.9354 16.7711 11.7878L16.559 11.5757L16.3469 11.7878L7.14685 20.9878C6.974 21.1607 6.78868 21.2815 6.5908 21.3564L6.59038 21.3566C6.3812 21.4361 6.17126 21.475 5.95898 21.475C5.75001 21.475 5.53772 21.4334 5.3204 21.3464C5.1083 21.2616 4.91736 21.1424 4.74632 20.9876C4.59004 20.815 4.47064 20.6271 4.38613 20.4231C4.3015 20.2182 4.25898 20.003 4.25898 19.775C4.25898 19.5435 4.29845 19.3253 4.37651 19.1183C4.45205 18.9204 4.57318 18.7351 4.74589 18.5623C4.74596 18.5623 4.74604 18.5622 4.74612 18.5621L11.8207 11.5125L12.0328 11.3012L11.8219 11.0887L8.64695 7.88868L8.64706 7.88857L8.63997 7.88187C8.39931 7.65459 8.28398 7.3872 8.28398 7.06198C8.28398 6.73701 8.39987 6.45835 8.64612 6.21211L8.6462 6.21219L8.65209 6.20596C8.87813 5.96663 9.14894 5.84998 9.48398 5.84998C9.81947 5.84998 10.102 5.96722 10.3469 6.21211L13.5219 9.38711L13.734 9.59924L13.9461 9.38711Z" fill="white" stroke="#727474" stroke-width="0.6"/>
</svg>
