<svg width="61" height="60" viewBox="0 0 61 60" fill="none" xmlns="http://www.w3.org/2000/svg">
<path d="M22.833 30L27.833 35L37.833 25M30.3331 7.5C36.1727 12.6664 43.7943 15.3564 51.5831 15C52.7171 18.8575 53.064 22.9037 52.6034 26.898C52.1427 30.8922 50.8839 34.7532 48.9016 38.2513C46.9193 41.7495 44.2541 44.8135 41.0642 47.2612C37.8744 49.7089 34.2251 51.4905 30.3331 52.5C26.4411 51.4905 22.7918 49.7089 19.6019 47.2612C16.4121 44.8135 13.7469 41.7495 11.7646 38.2513C9.78229 34.7532 8.52342 30.8922 8.06277 26.898C7.60212 22.9037 7.9491 18.8575 9.08308 15C16.8719 15.3564 24.4935 12.6664 30.3331 7.5Z" stroke="#A83AF6" stroke-width="2" stroke-linecap="round" stroke-linejoin="round"/>
</svg>
