<svg width="25" height="24" viewBox="0 0 25 24" fill="none" xmlns="http://www.w3.org/2000/svg">
<path d="M19.3833 7.311H17.1703V6.426C17.1703 3.947 15.1343 2 12.5233 2C9.91134 2 7.87534 3.947 7.87534 6.426V7.311H5.66234C5.4277 7.31179 5.2029 7.40542 5.03708 7.57144C4.87125 7.73745 4.77787 7.96235 4.77734 8.197V21.475C4.77734 21.962 5.17534 22.36 5.66234 22.36H19.3833C19.6178 22.3592 19.8425 22.2657 20.0083 22.0999C20.1741 21.9341 20.2676 21.7095 20.2683 21.475V8.197C20.2678 7.96235 20.1744 7.73745 20.0086 7.57144C19.8428 7.40542 19.618 7.31179 19.3833 7.311ZM8.76034 6.426C8.76034 4.434 10.4203 2.886 12.5233 2.886C14.6253 2.886 16.2853 4.434 16.2853 6.426V7.311H8.76034V6.426ZM19.3833 21.475H5.66334V8.197H19.3833V21.475ZM9.86734 13.95C8.89334 13.95 8.09734 13.154 8.09734 12.18C8.09734 11.206 8.89334 10.41 9.86734 10.41C10.8413 10.41 11.6373 11.206 11.6373 12.18C11.6373 13.154 10.8413 13.95 9.86734 13.95ZM9.86734 11.295C9.63287 11.2958 9.40823 11.3893 9.24243 11.5551C9.07663 11.7209 8.98313 11.9455 8.98234 12.18C8.98234 12.667 9.38034 13.065 9.86734 13.065C10.1018 13.0642 10.3265 12.9707 10.4923 12.8049C10.6581 12.6391 10.7516 12.4145 10.7523 12.18C10.7516 11.9455 10.6581 11.7209 10.4923 11.5551C10.3265 11.3893 10.1018 11.2958 9.86734 11.295ZM15.1783 19.262C14.2053 19.262 13.4083 18.465 13.4083 17.492C13.4083 16.518 14.2053 15.721 15.1783 15.721C16.1523 15.721 16.9483 16.518 16.9483 17.491C16.9483 18.465 16.1523 19.261 15.1783 19.261V19.262ZM15.1783 16.606C14.9439 16.6068 14.7192 16.7003 14.5534 16.8661C14.3876 17.0319 14.2941 17.2565 14.2933 17.491C14.2933 17.978 14.6913 18.377 15.1783 18.377C15.4132 18.3765 15.6382 18.283 15.8043 18.1169C15.9703 17.9509 16.0638 17.7258 16.0643 17.491C16.0636 17.2564 15.9699 17.0316 15.8039 16.8657C15.6379 16.6999 15.413 16.6065 15.1783 16.606ZM8.76034 19.04C8.70251 19.0396 8.64532 19.0277 8.59211 19.0051C8.5389 18.9824 8.49071 18.9494 8.45034 18.908C8.40835 18.868 8.37491 18.8199 8.35207 18.7666C8.32922 18.7134 8.31744 18.656 8.31744 18.598C8.31744 18.54 8.32922 18.4826 8.35207 18.4294C8.37491 18.3761 8.40835 18.328 8.45034 18.288L15.9753 10.764C16.0153 10.722 16.0634 10.6886 16.1167 10.6657C16.17 10.6429 16.2274 10.6311 16.2853 10.6311C16.3433 10.6311 16.4007 10.6429 16.454 10.6657C16.5073 10.6886 16.5554 10.722 16.5953 10.764C16.6373 10.804 16.6708 10.8521 16.6936 10.9054C16.7165 10.9586 16.7282 11.016 16.7282 11.074C16.7282 11.132 16.7165 11.1894 16.6936 11.2426C16.6708 11.2959 16.6373 11.344 16.5953 11.384L9.07034 18.908C9.02998 18.9494 8.98179 18.9824 8.92858 19.0051C8.87536 19.0277 8.81818 19.0396 8.76034 19.04Z" fill="#727474" stroke="#727474" stroke-width="0.5"/>
</svg>
