<svg width="25" height="24" viewBox="0 0 25 24" fill="none" xmlns="http://www.w3.org/2000/svg">
<path d="M21.9326 8.743C21.8193 8.61098 21.6788 8.50506 21.5207 8.43256C21.3625 8.36005 21.1906 8.32268 21.0166 8.323H19.1366L19.4516 5.356C19.4731 5.18623 19.4581 5.01384 19.4077 4.85031C19.3574 4.68677 19.2727 4.53583 19.1595 4.40755C19.0463 4.27926 18.907 4.17657 18.751 4.10629C18.5949 4.03602 18.4257 3.99979 18.2546 4H6.19062C6.02013 3.99993 5.85157 4.036 5.69605 4.10585C5.54052 4.17569 5.40158 4.27772 5.28837 4.40519C5.17516 4.53267 5.09027 4.6827 5.03929 4.84538C4.98831 5.00807 4.97241 5.17972 4.99262 5.349L5.30762 8.323H3.42862C3.25478 8.32301 3.08299 8.36059 2.92503 8.43319C2.76707 8.50579 2.62667 8.61168 2.51346 8.7436C2.40024 8.87553 2.31689 9.03037 2.26911 9.19752C2.22132 9.36467 2.21024 9.54017 2.23662 9.712L3.44062 17.537C3.47691 17.7799 3.59946 18.0016 3.78586 18.1616C3.97225 18.3215 4.21001 18.409 4.45562 18.408H5.58362L5.06262 20.493C5.03942 20.5857 5.05398 20.6838 5.10312 20.7658C5.15225 20.8477 5.23193 20.9068 5.32462 20.93C5.41731 20.9532 5.51543 20.9386 5.59738 20.8895C5.67934 20.8404 5.73842 20.7607 5.76162 20.668L6.32562 18.408H18.1186L18.6836 20.668C18.6937 20.7154 18.7132 20.7603 18.7411 20.8001C18.7689 20.8398 18.8044 20.8735 18.8455 20.8992C18.8867 20.9248 18.9325 20.942 18.9804 20.9495C19.0283 20.9571 19.0773 20.9549 19.1243 20.9432C19.1713 20.9314 19.2155 20.9103 19.2542 20.8811C19.2929 20.8519 19.3253 20.8152 19.3495 20.7732C19.3737 20.7311 19.3892 20.6847 19.3951 20.6365C19.4009 20.5884 19.397 20.5396 19.3836 20.493L18.8616 18.408H19.9896C20.2351 18.409 20.4727 18.3217 20.6591 18.162C20.8455 18.0022 20.9681 17.7807 21.0046 17.538L22.2086 9.712C22.2351 9.54006 22.2241 9.36442 22.1763 9.19715C22.1285 9.02988 22.045 8.87495 21.9316 8.743H21.9326ZM6.09862 13.233C6.09862 13.222 6.10162 13.21 6.10562 13.198C6.11269 13.1756 6.12669 13.156 6.14562 13.142C6.20862 13.094 6.27262 13.047 6.33862 13.001L6.36462 12.984C6.41662 12.948 6.46962 12.913 6.52262 12.879L6.59762 12.833C6.70117 12.7696 6.80655 12.7092 6.91362 12.652L6.99662 12.608C7.12619 12.5416 7.25829 12.4802 7.39262 12.424L7.49062 12.384C7.59612 12.3416 7.70283 12.3022 7.81062 12.266L7.92862 12.227L8.01062 12.202C8.11462 12.172 8.22062 12.142 8.32562 12.116L8.33562 12.113C8.38947 12.1003 8.44347 12.0883 8.49762 12.077L8.55262 12.065C8.60662 12.053 8.66062 12.043 8.71562 12.033L8.76462 12.024C8.82262 12.014 8.88162 12.004 8.93962 11.996L8.94962 11.995C9.08462 11.975 9.21962 11.96 9.35662 11.948H9.36262C9.54462 11.933 9.72862 11.925 9.91262 11.925H14.5326C14.9137 11.9253 15.2941 11.9581 15.6696 12.023L15.7196 12.031L15.8566 12.058L15.9466 12.077C16.1015 12.1101 16.255 12.1494 16.4066 12.195L16.4906 12.22C16.5606 12.241 16.6286 12.264 16.6966 12.287L16.7566 12.31C16.8066 12.327 16.8546 12.345 16.9026 12.364L16.9966 12.402C17.1378 12.4601 17.2769 12.5231 17.4136 12.591L17.4676 12.619C17.6876 12.733 17.9006 12.86 18.1046 13.001L18.1086 13.004L18.1766 13.051C18.2292 13.089 18.272 13.1388 18.3016 13.1965C18.3311 13.2543 18.3466 13.3182 18.3466 13.383V14.693C18.3466 14.723 18.3347 14.7517 18.3135 14.7729C18.2923 14.7941 18.2636 14.806 18.2336 14.806H6.21162C6.18182 14.806 6.15323 14.7942 6.13207 14.7733C6.11091 14.7523 6.09889 14.7238 6.09862 14.694V13.234V13.233ZM5.82662 4.885C5.87188 4.83296 5.92782 4.79129 5.99063 4.76282C6.05345 4.73434 6.12166 4.71974 6.19062 4.72H18.2546C18.3241 4.72005 18.3927 4.73499 18.4559 4.7638C18.5191 4.79262 18.5754 4.83465 18.621 4.88705C18.6665 4.93945 18.7004 5.00102 18.7201 5.06759C18.7399 5.13417 18.7452 5.20421 18.7356 5.273L18.3856 8.585L18.0136 12.095L17.9996 12.087C17.801 11.9759 17.5967 11.8751 17.3876 11.785L17.3056 11.751C17.2275 11.7186 17.1489 11.6875 17.0696 11.658L16.9826 11.625C16.8811 11.5887 16.7787 11.5547 16.6756 11.523L16.5996 11.501C16.3807 11.4365 16.1587 11.3824 15.9346 11.339L15.9236 11.336C15.8048 11.3134 15.6854 11.2937 15.5656 11.277L15.5226 11.272C15.4099 11.2567 15.2969 11.244 15.1836 11.234L15.1676 11.232C15.0653 11.2137 14.9616 11.2043 14.8576 11.204H9.58762C9.48362 11.204 9.38162 11.214 9.28062 11.232H9.27262C9.02202 11.2535 8.77269 11.2879 8.52562 11.335L8.51962 11.336C8.39962 11.36 8.27962 11.386 8.15962 11.415L8.12462 11.424C7.90596 11.479 7.69005 11.5444 7.47762 11.62C7.35292 11.664 7.22953 11.7117 7.10762 11.763L7.04062 11.792C6.84873 11.8755 6.66086 11.9679 6.47762 12.069L6.43062 12.094L6.07062 8.683L5.70862 5.266C5.69983 5.19775 5.70581 5.1284 5.72617 5.06266C5.74653 4.99693 5.78079 4.93634 5.82662 4.885ZM21.4966 9.602L20.2926 17.428C20.2818 17.5005 20.2452 17.5667 20.1896 17.6145C20.1339 17.6622 20.0629 17.6883 19.9896 17.688H4.45562C4.3823 17.6883 4.31131 17.6622 4.25567 17.6145C4.20002 17.5667 4.16344 17.5005 4.15262 17.428L2.94862 9.603C2.93796 9.53377 2.94238 9.46304 2.9616 9.39568C2.98082 9.32832 3.01437 9.2659 3.05996 9.21272C3.10554 9.15953 3.16209 9.11683 3.22573 9.08753C3.28936 9.05824 3.35857 9.04305 3.42862 9.043H5.38362L5.75262 12.53C5.7386 12.5444 5.72356 12.5578 5.70762 12.57C5.60585 12.6481 5.52329 12.7484 5.46626 12.8634C5.40924 12.9783 5.37926 13.1047 5.37862 13.233V14.693C5.37862 14.914 5.46635 15.126 5.62254 15.2824C5.77873 15.4388 5.9906 15.5267 6.21162 15.527H18.2326C18.4535 15.5267 18.6652 15.4389 18.8214 15.2827C18.9775 15.1266 19.0654 14.9148 19.0656 14.694V13.384C19.0656 13.34 19.0626 13.298 19.0576 13.255C19.0566 13.241 19.0536 13.228 19.0516 13.214C19.0473 13.1858 19.042 13.1578 19.0356 13.13L19.0226 13.082C19.0159 13.0571 19.0082 13.0324 18.9996 13.008L18.9816 12.96C18.9557 12.8967 18.9242 12.8358 18.8876 12.778L18.8606 12.737C18.8447 12.7144 18.8281 12.6924 18.8106 12.671L18.7826 12.636C18.7603 12.6113 18.737 12.5876 18.7126 12.565C18.7066 12.558 18.7006 12.551 18.6926 12.545L18.6906 12.542L19.0606 9.042H21.0156C21.0857 9.04188 21.155 9.05696 21.2187 9.0862C21.2825 9.11544 21.3391 9.15814 21.3847 9.21137C21.4303 9.26459 21.4639 9.32708 21.483 9.39452C21.5022 9.46195 21.5065 9.53274 21.4956 9.602H21.4966Z" fill="#727474" stroke="#727474" stroke-width="0.2"/>
</svg>
