<svg width="25" height="24" viewBox="0 0 25 24" fill="none" xmlns="http://www.w3.org/2000/svg">
<path fill-rule="evenodd" clip-rule="evenodd" d="M19.3077 11.9091H6.66269C6.03569 11.9091 5.52869 12.4171 5.52869 13.0431V19.8931C5.52869 20.5191 6.03569 21.0261 6.66269 21.0261H19.3077C19.9337 21.0261 20.4417 20.5191 20.4417 19.8921V13.0421C20.4417 12.4171 19.9337 11.9091 19.3077 11.9091ZM6.66269 10.9351C6.38582 10.9349 6.11165 10.9894 5.85584 11.0953C5.60002 11.2011 5.36759 11.3564 5.17181 11.5522C4.97604 11.748 4.82077 11.9804 4.71488 12.2362C4.60899 12.492 4.55456 12.7662 4.55469 13.0431V19.8931C4.55469 21.0551 5.49869 22.0001 6.66269 22.0001H19.3077C19.8668 22.0001 20.4029 21.778 20.7983 21.3826C21.1936 20.9873 21.4157 20.4511 21.4157 19.8921V13.0421C21.4154 12.4832 21.1932 11.9472 20.7979 11.5521C20.4026 11.157 19.8666 10.9351 19.3077 10.9351H6.66269Z" fill="#727474"/>
<path d="M13.5947 10.957V2.448C13.5953 2.329 13.6429 2.21505 13.7272 2.13109C13.8116 2.04713 13.9257 2 14.0447 2H19.0187C19.1374 2.00053 19.251 2.0479 19.3349 2.1318C19.4188 2.2157 19.4662 2.32935 19.4667 2.448V10.958H18.5707V2.85H14.4477V4.553H15.5277C15.6466 4.55353 15.7603 4.60103 15.8443 4.68515C15.9282 4.76927 15.9755 4.88317 15.9757 5.002C15.9752 5.12065 15.9278 5.2343 15.8439 5.3182C15.76 5.40211 15.6464 5.44947 15.5277 5.45H14.4477V6.884H16.6837C16.8024 6.88453 16.916 6.9319 16.9999 7.0158C17.0838 7.0997 17.1312 7.21335 17.1317 7.332C17.1312 7.45065 17.0838 7.5643 16.9999 7.6482C16.916 7.7321 16.8024 7.77947 16.6837 7.78H14.4477V9.17H15.5277C15.6462 9.17052 15.7597 9.21776 15.8436 9.30144C15.9275 9.38513 15.9749 9.49852 15.9757 9.617C15.9755 9.73583 15.9282 9.84973 15.8443 9.93385C15.7603 10.018 15.6466 10.0655 15.5277 10.066H14.4477V10.956H13.5957L13.5947 10.957Z" fill="#727474"/>
<path fill-rule="evenodd" clip-rule="evenodd" d="M11.1628 10.957L11.1568 5.921C11.1565 5.84949 11.1397 5.77901 11.1078 5.715L9.31983 2.246C9.28234 2.17229 9.22527 2.11034 9.15489 2.06695C9.0845 2.02355 9.00352 2.00039 8.92083 2C8.83814 2.00039 8.75716 2.02355 8.68677 2.06695C8.61638 2.11034 8.55931 2.17229 8.52183 2.246L6.72983 5.711C6.69756 5.77491 6.68045 5.8454 6.67983 5.917L6.67383 10.957H7.56983L7.57683 6.347H10.2608L10.2648 10.957H11.1628ZM9.97383 5.451L8.92083 3.41L7.86783 5.45H9.97483L9.97383 5.451Z" fill="#727474"/>
</svg>
