<svg width="25" height="24" viewBox="0 0 25 24" fill="none" xmlns="http://www.w3.org/2000/svg">
<path fill-rule="evenodd" clip-rule="evenodd" d="M3.77831 5C3.04231 5 2.44531 5.597 2.44531 6.333V17.667C2.44531 18.403 3.04231 19 3.77831 19H21.1123C21.8483 19 22.4453 18.403 22.4453 17.667V6.333C22.4453 5.597 21.8483 5 21.1123 5H3.77831ZM4.44531 5.667C3.70931 5.667 3.11231 6.264 3.11231 7V17C3.11231 17.736 3.70931 18.333 4.44531 18.333H20.4453C21.1813 18.333 21.7783 17.736 21.7783 17V7C21.7783 6.264 21.1813 5.667 20.4453 5.667H4.44531Z" fill="#727474"/>
<path d="M5.11231 7.66699H4.44531V15.667C4.44531 16.403 5.04231 17 5.77831 17H15.1123C15.8483 17 16.4453 16.403 16.4453 15.667V7.66699H15.7783V15C15.7783 15.736 15.1813 16.333 14.4453 16.333H6.44531C6.09178 16.333 5.75272 16.1926 5.50274 15.9426C5.25275 15.6926 5.11231 15.3535 5.11231 15V7.66699Z" fill="#727474"/>
<path d="M8.44531 8.33301H12.4453V9.00001H8.44531V8.33301Z" fill="#727474"/>
<path fill-rule="evenodd" clip-rule="evenodd" d="M19.1128 10.333C19.4663 10.333 19.8054 10.1926 20.0554 9.94257C20.3054 9.69258 20.4458 9.35353 20.4458 8.99999C20.4458 8.64646 20.3054 8.3074 20.0554 8.05742C19.8054 7.80743 19.4663 7.66699 19.1128 7.66699C18.7593 7.66699 18.4202 7.80743 18.1702 8.05742C17.9202 8.3074 17.7798 8.64646 17.7798 8.99999C17.7798 9.35353 17.9202 9.69258 18.1702 9.94257C18.4202 10.1926 18.7593 10.333 19.1128 10.333ZM19.1128 9.66699C19.2897 9.66699 19.4593 9.59672 19.5844 9.47163C19.7095 9.34655 19.7798 9.17689 19.7798 8.99999C19.7798 8.82309 19.7095 8.65344 19.5844 8.52835C19.4593 8.40326 19.2897 8.33299 19.1128 8.33299C18.9359 8.33299 18.7662 8.40326 18.6412 8.52835C18.5161 8.65344 18.4458 8.82309 18.4458 8.99999C18.4458 9.17689 18.5161 9.34655 18.6412 9.47163C18.7662 9.59672 18.9359 9.66699 19.1128 9.66699ZM19.1128 15.667C19.4665 15.667 19.8056 15.5265 20.0557 15.2764C20.3058 15.0263 20.4463 14.6872 20.4463 14.3335C20.4463 13.9798 20.3058 13.6406 20.0557 13.3906C19.8056 13.1405 19.4665 13 19.1128 13C18.7591 13 18.42 13.1405 18.1699 13.3906C17.9198 13.6406 17.7793 13.9798 17.7793 14.3335C17.7793 14.6872 17.9198 15.0263 18.1699 15.2764C18.42 15.5265 18.7591 15.667 19.1128 15.667ZM19.1128 15C19.2025 15.0035 19.292 14.9888 19.3759 14.9569C19.4598 14.9249 19.5363 14.8764 19.601 14.8142C19.6657 14.7519 19.7172 14.6773 19.7523 14.5947C19.7875 14.5121 19.8056 14.4233 19.8056 14.3335C19.8056 14.2437 19.7875 14.1549 19.7523 14.0723C19.7172 13.9897 19.6657 13.915 19.601 13.8528C19.5363 13.7906 19.4598 13.742 19.3759 13.7101C19.292 13.6782 19.2025 13.6635 19.1128 13.667C18.9405 13.6737 18.7775 13.7468 18.6579 13.8711C18.5384 13.9953 18.4716 14.1611 18.4716 14.3335C18.4716 14.5059 18.5384 14.6716 18.6579 14.7959C18.7775 14.9202 18.9405 14.9933 19.1128 15Z" fill="#727474"/>
<path d="M3.77831 5C3.04231 5 2.44531 5.597 2.44531 6.333V17.667C2.44531 18.403 3.04231 19 3.77831 19H21.1123C21.8483 19 22.4453 18.403 22.4453 17.667V6.333C22.4453 5.597 21.8483 5 21.1123 5H3.77831ZM4.44531 5.667C3.70931 5.667 3.11231 6.264 3.11231 7V17C3.11231 17.736 3.70931 18.333 4.44531 18.333H20.4453C21.1813 18.333 21.7783 17.736 21.7783 17V7C21.7783 6.264 21.1813 5.667 20.4453 5.667H4.44531Z" stroke="#727474" stroke-width="0.3"/>
<path d="M5.11231 7.66699H4.44531V15.667C4.44531 16.403 5.04231 17 5.77831 17H15.1123C15.8483 17 16.4453 16.403 16.4453 15.667V7.66699H15.7783V15C15.7783 15.736 15.1813 16.333 14.4453 16.333H6.44531C6.09178 16.333 5.75272 16.1926 5.50274 15.9426C5.25275 15.6926 5.11231 15.3535 5.11231 15V7.66699Z" stroke="#727474" stroke-width="0.3"/>
<path d="M8.44531 8.33301H12.4453V9.00001H8.44531V8.33301Z" stroke="#727474" stroke-width="0.3"/>
<path d="M19.1128 10.333C19.4663 10.333 19.8054 10.1926 20.0554 9.94257C20.3054 9.69258 20.4458 9.35353 20.4458 8.99999C20.4458 8.64646 20.3054 8.3074 20.0554 8.05742C19.8054 7.80743 19.4663 7.66699 19.1128 7.66699C18.7593 7.66699 18.4202 7.80743 18.1702 8.05742C17.9202 8.3074 17.7798 8.64646 17.7798 8.99999C17.7798 9.35353 17.9202 9.69258 18.1702 9.94257C18.4202 10.1926 18.7593 10.333 19.1128 10.333V10.333ZM19.1128 9.66699C19.2897 9.66699 19.4593 9.59672 19.5844 9.47163C19.7095 9.34655 19.7798 9.17689 19.7798 8.99999C19.7798 8.82309 19.7095 8.65344 19.5844 8.52835C19.4593 8.40327 19.2897 8.33299 19.1128 8.33299C18.9359 8.33299 18.7662 8.40327 18.6412 8.52835C18.5161 8.65344 18.4458 8.82309 18.4458 8.99999C18.4458 9.17689 18.5161 9.34655 18.6412 9.47163C18.7662 9.59672 18.9359 9.66699 19.1128 9.66699V9.66699ZM19.1128 15.667C19.4665 15.667 19.8056 15.5265 20.0557 15.2764C20.3058 15.0263 20.4463 14.6872 20.4463 14.3335C20.4463 13.9798 20.3058 13.6406 20.0557 13.3906C19.8056 13.1405 19.4665 13 19.1128 13C18.7591 13 18.42 13.1405 18.1699 13.3906C17.9198 13.6406 17.7793 13.9798 17.7793 14.3335C17.7793 14.6872 17.9198 15.0263 18.1699 15.2764C18.42 15.5265 18.7591 15.667 19.1128 15.667V15.667ZM19.1128 15C19.2025 15.0035 19.292 14.9888 19.3759 14.9569C19.4598 14.9249 19.5363 14.8764 19.601 14.8142C19.6657 14.7519 19.7172 14.6773 19.7523 14.5947C19.7875 14.5121 19.8056 14.4233 19.8056 14.3335C19.8056 14.2437 19.7875 14.1549 19.7523 14.0723C19.7172 13.9897 19.6657 13.915 19.601 13.8528C19.5363 13.7906 19.4598 13.742 19.3759 13.7101C19.292 13.6782 19.2025 13.6635 19.1128 13.667C18.9405 13.6737 18.7775 13.7468 18.6579 13.8711C18.5384 13.9953 18.4716 14.1611 18.4716 14.3335C18.4716 14.5059 18.5384 14.6716 18.6579 14.7959C18.7775 14.9202 18.9405 14.9933 19.1128 15V15Z" stroke="#727474" stroke-width="0.3"/>
</svg>
